# xmcd
#
# Track frame offsets: 
#        150
#        12540
#        24285
#        36007
#        47762
#        61002
#        72025
#        85652
#        99665
#        110557
#        122900
#        135965
#        148092
#        162465
#        173557
#        184707
#        198497
#        210065
#        220025
#        232400
#        241420
#        251140
#
# Disc length: 3441 seconds
#
# Revision: 0
# Processed by: cddbd v1.5.1PL0 Copyright (c) Steve Scherf et al.
# Submitted via: ExactAudioCopy v0.90b4
#
DISCID=300d6f16
DTITLE=Hank Williams - Cold, Cold Heart
DYEAR=1900
DGENRE=Country
TTITLE0=Cold, Cold Heart
TTITLE1=Dear John
TTITLE2=Lost on the River (with Audrey Williams)
TTITLE3=I Heard My Mother Praying for Me (with Audrey Williams)
TTITLE4=Hey, Good Lookin'
TTITLE5=My Heart Would Know
TTITLE6=Beyond the Sunset
TTITLE7=Funeral
TTITLE8=I Can't Help It (If I'm Still In Love With You)
TTITLE9=Howlin' at the Moon
TTITLE10=Jesus Remembered Me (with Audrey Williams)
TTITLE11=Just Waitin'
TTITLE12=Men With Broken Hearts
TTITLE13=(I Heard That) Lonesome Whistle 
TTITLE14=Crazy Heart
TTITLE15=Ramblin' Man
TTITLE16=Baby, We're Really In Love
TTITLE17=Honky Tonk Blues
TTITLE18=Help Me Understand (with Audrey Williams)
TTITLE19=When God Dips His Love In My Heart
TTITLE20=I Want to Live and Love (with Audrey Williams)
TTITLE21=Where the Soul of Man Never Dies (with Audrey Williams)
EXTD=
EXTT0=
EXTT1=
EXTT2=
EXTT3=
EXTT4=
EXTT5=
EXTT6=
EXTT7=
EXTT8=
EXTT9=
EXTT10=
EXTT11=
EXTT12=
EXTT13=
EXTT14=
EXTT15=
EXTT16=
EXTT17=
EXTT18=
EXTT19=
EXTT20=
EXTT21=
PLAYORDER=
